<mxfile host="app.diagrams.net" modified="2023-09-15T16:00:39.469Z" agent="Mozilla/5.0 (Windows NT 10.0; Win64; x64) AppleWebKit/537.36 (KHTML, like Gecko) Chrome/116.0.0.0 Safari/537.36" etag="mQxsQbyoBqbuFVJG3Ddd" version="21.7.4" type="device">
  <diagram name="Page-1" id="b3tc0pRuWGflE5XBi_cO">
    <mxGraphModel dx="3905" dy="3255" grid="1" gridSize="10" guides="1" tooltips="1" connect="1" arrows="1" fold="1" page="1" pageScale="1" pageWidth="850" pageHeight="1100" math="0" shadow="0">
      <root>
        <mxCell id="0" />
        <mxCell id="1" parent="0" />
        <mxCell id="Ry-wdNPNn0yCc1i3UbVn-101" value="web-разработчик" style="rounded=0;whiteSpace=wrap;html=1;fillColor=#d5e8d4;strokeColor=#82b366;" vertex="1" parent="1">
          <mxGeometry x="2005" y="-580" width="825" height="200" as="geometry" />
        </mxCell>
        <mxCell id="Ry-wdNPNn0yCc1i3UbVn-100" value="" style="edgeStyle=orthogonalEdgeStyle;rounded=0;orthogonalLoop=1;jettySize=auto;html=1;" edge="1" parent="1" source="Ry-wdNPNn0yCc1i3UbVn-99" target="Ry-wdNPNn0yCc1i3UbVn-77">
          <mxGeometry relative="1" as="geometry" />
        </mxCell>
        <mxCell id="Ry-wdNPNn0yCc1i3UbVn-99" value="" style="shape=trapezoid;perimeter=trapezoidPerimeter;whiteSpace=wrap;html=1;fixedSize=1;" vertex="1" parent="1">
          <mxGeometry x="2046.5" y="-180" width="53" height="35" as="geometry" />
        </mxCell>
        <mxCell id="Ry-wdNPNn0yCc1i3UbVn-96" value="" style="rounded=0;whiteSpace=wrap;html=1;fillColor=#fff2cc;strokeColor=#d6b656;" vertex="1" parent="1">
          <mxGeometry x="1870" y="-460" width="120" height="140" as="geometry" />
        </mxCell>
        <mxCell id="Ry-wdNPNn0yCc1i3UbVn-83" value="" style="shape=hexagon;perimeter=hexagonPerimeter2;whiteSpace=wrap;html=1;fixedSize=1;fillColor=#f8cecc;strokeColor=#b85450;" vertex="1" parent="1">
          <mxGeometry x="1820" y="-400" width="490" height="190" as="geometry" />
        </mxCell>
        <mxCell id="Ry-wdNPNn0yCc1i3UbVn-49" value="" style="rounded=0;whiteSpace=wrap;html=1;fillColor=#d5e8d4;strokeColor=#82b366;" vertex="1" parent="1">
          <mxGeometry x="1830" y="130" width="390" height="550" as="geometry" />
        </mxCell>
        <mxCell id="Ry-wdNPNn0yCc1i3UbVn-43" value="" style="rounded=0;whiteSpace=wrap;html=1;fillColor=#f8cecc;strokeColor=#b85450;" vertex="1" parent="1">
          <mxGeometry x="1500" y="190" width="280" height="160" as="geometry" />
        </mxCell>
        <mxCell id="I2a9pSv5UqrttLGaPGQR-35" value="" style="rounded=0;whiteSpace=wrap;html=1;fillColor=#f8cecc;strokeColor=#b85450;" parent="1" vertex="1">
          <mxGeometry x="70" y="-510" width="270" height="220" as="geometry" />
        </mxCell>
        <mxCell id="I2a9pSv5UqrttLGaPGQR-1" value="Кадровик" style="shape=umlActor;verticalLabelPosition=bottom;verticalAlign=top;html=1;outlineConnect=0;fillColor=#f8cecc;strokeColor=#b85450;" parent="1" vertex="1">
          <mxGeometry x="160" y="280" width="30" height="60" as="geometry" />
        </mxCell>
        <mxCell id="I2a9pSv5UqrttLGaPGQR-7" style="edgeStyle=orthogonalEdgeStyle;rounded=0;orthogonalLoop=1;jettySize=auto;html=1;" parent="1" source="I2a9pSv5UqrttLGaPGQR-2" target="I2a9pSv5UqrttLGaPGQR-6" edge="1">
          <mxGeometry relative="1" as="geometry" />
        </mxCell>
        <mxCell id="I2a9pSv5UqrttLGaPGQR-2" value="html" style="shape=note;whiteSpace=wrap;html=1;backgroundOutline=1;darkOpacity=0.05;fillColor=#d5e8d4;strokeColor=#82b366;" parent="1" vertex="1">
          <mxGeometry x="240" y="240" width="80" height="100" as="geometry" />
        </mxCell>
        <mxCell id="I2a9pSv5UqrttLGaPGQR-3" value="React (SPA)" style="text;html=1;strokeColor=none;fillColor=none;align=center;verticalAlign=middle;whiteSpace=wrap;rounded=0;" parent="1" vertex="1">
          <mxGeometry x="235" y="350" width="90" height="30" as="geometry" />
        </mxCell>
        <mxCell id="I2a9pSv5UqrttLGaPGQR-4" value="база данных" style="shape=cylinder3;whiteSpace=wrap;html=1;boundedLbl=1;backgroundOutline=1;size=15;fillColor=#dae8fc;strokeColor=#6c8ebf;" parent="1" vertex="1">
          <mxGeometry x="800" y="280" width="60" height="80" as="geometry" />
        </mxCell>
        <mxCell id="I2a9pSv5UqrttLGaPGQR-49" style="edgeStyle=orthogonalEdgeStyle;rounded=0;orthogonalLoop=1;jettySize=auto;html=1;" parent="1" source="I2a9pSv5UqrttLGaPGQR-6" target="I2a9pSv5UqrttLGaPGQR-48" edge="1">
          <mxGeometry relative="1" as="geometry" />
        </mxCell>
        <mxCell id="I2a9pSv5UqrttLGaPGQR-6" value="django" style="shape=hexagon;perimeter=hexagonPerimeter2;whiteSpace=wrap;html=1;fixedSize=1;fillColor=#f8cecc;strokeColor=#b85450;" parent="1" vertex="1">
          <mxGeometry x="480" y="250" width="120" height="80" as="geometry" />
        </mxCell>
        <mxCell id="I2a9pSv5UqrttLGaPGQR-8" value="" style="shape=flexArrow;endArrow=classic;html=1;rounded=0;" parent="1" edge="1">
          <mxGeometry width="50" height="50" relative="1" as="geometry">
            <mxPoint x="490" y="340" as="sourcePoint" />
            <mxPoint x="340" y="360" as="targetPoint" />
          </mxGeometry>
        </mxCell>
        <mxCell id="I2a9pSv5UqrttLGaPGQR-9" value="Worker" style="swimlane;fontStyle=0;childLayout=stackLayout;horizontal=1;startSize=30;horizontalStack=0;resizeParent=1;resizeParentMax=0;resizeLast=0;collapsible=1;marginBottom=0;whiteSpace=wrap;html=1;" parent="1" vertex="1">
          <mxGeometry x="120" y="-240" width="140" height="150" as="geometry" />
        </mxCell>
        <mxCell id="I2a9pSv5UqrttLGaPGQR-10" value="id" style="text;strokeColor=none;fillColor=none;align=left;verticalAlign=middle;spacingLeft=4;spacingRight=4;overflow=hidden;points=[[0,0.5],[1,0.5]];portConstraint=eastwest;rotatable=0;whiteSpace=wrap;html=1;" parent="I2a9pSv5UqrttLGaPGQR-9" vertex="1">
          <mxGeometry y="30" width="140" height="30" as="geometry" />
        </mxCell>
        <mxCell id="I2a9pSv5UqrttLGaPGQR-11" value="iin" style="text;strokeColor=none;fillColor=none;align=left;verticalAlign=middle;spacingLeft=4;spacingRight=4;overflow=hidden;points=[[0,0.5],[1,0.5]];portConstraint=eastwest;rotatable=0;whiteSpace=wrap;html=1;" parent="I2a9pSv5UqrttLGaPGQR-9" vertex="1">
          <mxGeometry y="60" width="140" height="30" as="geometry" />
        </mxCell>
        <mxCell id="I2a9pSv5UqrttLGaPGQR-12" value="fio" style="text;strokeColor=none;fillColor=none;align=left;verticalAlign=middle;spacingLeft=4;spacingRight=4;overflow=hidden;points=[[0,0.5],[1,0.5]];portConstraint=eastwest;rotatable=0;whiteSpace=wrap;html=1;" parent="I2a9pSv5UqrttLGaPGQR-9" vertex="1">
          <mxGeometry y="90" width="140" height="30" as="geometry" />
        </mxCell>
        <mxCell id="I2a9pSv5UqrttLGaPGQR-13" value="position" style="text;strokeColor=none;fillColor=none;align=left;verticalAlign=middle;spacingLeft=4;spacingRight=4;overflow=hidden;points=[[0,0.5],[1,0.5]];portConstraint=eastwest;rotatable=0;whiteSpace=wrap;html=1;" parent="I2a9pSv5UqrttLGaPGQR-9" vertex="1">
          <mxGeometry y="120" width="140" height="30" as="geometry" />
        </mxCell>
        <mxCell id="I2a9pSv5UqrttLGaPGQR-14" value="Position" style="swimlane;fontStyle=0;childLayout=stackLayout;horizontal=1;startSize=30;horizontalStack=0;resizeParent=1;resizeParentMax=0;resizeLast=0;collapsible=1;marginBottom=0;whiteSpace=wrap;html=1;" parent="1" vertex="1">
          <mxGeometry x="360" y="-240" width="140" height="120" as="geometry" />
        </mxCell>
        <mxCell id="I2a9pSv5UqrttLGaPGQR-15" value="id" style="text;strokeColor=none;fillColor=none;align=left;verticalAlign=middle;spacingLeft=4;spacingRight=4;overflow=hidden;points=[[0,0.5],[1,0.5]];portConstraint=eastwest;rotatable=0;whiteSpace=wrap;html=1;" parent="I2a9pSv5UqrttLGaPGQR-14" vertex="1">
          <mxGeometry y="30" width="140" height="30" as="geometry" />
        </mxCell>
        <mxCell id="I2a9pSv5UqrttLGaPGQR-16" value="name" style="text;strokeColor=none;fillColor=none;align=left;verticalAlign=middle;spacingLeft=4;spacingRight=4;overflow=hidden;points=[[0,0.5],[1,0.5]];portConstraint=eastwest;rotatable=0;whiteSpace=wrap;html=1;" parent="I2a9pSv5UqrttLGaPGQR-14" vertex="1">
          <mxGeometry y="60" width="140" height="30" as="geometry" />
        </mxCell>
        <mxCell id="I2a9pSv5UqrttLGaPGQR-17" value="grade" style="text;strokeColor=none;fillColor=none;align=left;verticalAlign=middle;spacingLeft=4;spacingRight=4;overflow=hidden;points=[[0,0.5],[1,0.5]];portConstraint=eastwest;rotatable=0;whiteSpace=wrap;html=1;" parent="I2a9pSv5UqrttLGaPGQR-14" vertex="1">
          <mxGeometry y="90" width="140" height="30" as="geometry" />
        </mxCell>
        <mxCell id="I2a9pSv5UqrttLGaPGQR-19" value="Grade" style="swimlane;fontStyle=0;childLayout=stackLayout;horizontal=1;startSize=30;horizontalStack=0;resizeParent=1;resizeParentMax=0;resizeLast=0;collapsible=1;marginBottom=0;whiteSpace=wrap;html=1;" parent="1" vertex="1">
          <mxGeometry x="560" y="-240" width="140" height="120" as="geometry" />
        </mxCell>
        <mxCell id="I2a9pSv5UqrttLGaPGQR-20" value="id" style="text;strokeColor=none;fillColor=none;align=left;verticalAlign=middle;spacingLeft=4;spacingRight=4;overflow=hidden;points=[[0,0.5],[1,0.5]];portConstraint=eastwest;rotatable=0;whiteSpace=wrap;html=1;" parent="I2a9pSv5UqrttLGaPGQR-19" vertex="1">
          <mxGeometry y="30" width="140" height="30" as="geometry" />
        </mxCell>
        <mxCell id="I2a9pSv5UqrttLGaPGQR-21" value="name" style="text;strokeColor=none;fillColor=none;align=left;verticalAlign=middle;spacingLeft=4;spacingRight=4;overflow=hidden;points=[[0,0.5],[1,0.5]];portConstraint=eastwest;rotatable=0;whiteSpace=wrap;html=1;" parent="I2a9pSv5UqrttLGaPGQR-19" vertex="1">
          <mxGeometry y="60" width="140" height="30" as="geometry" />
        </mxCell>
        <mxCell id="I2a9pSv5UqrttLGaPGQR-22" value="salary" style="text;strokeColor=none;fillColor=none;align=left;verticalAlign=middle;spacingLeft=4;spacingRight=4;overflow=hidden;points=[[0,0.5],[1,0.5]];portConstraint=eastwest;rotatable=0;whiteSpace=wrap;html=1;" parent="I2a9pSv5UqrttLGaPGQR-19" vertex="1">
          <mxGeometry y="90" width="140" height="30" as="geometry" />
        </mxCell>
        <mxCell id="I2a9pSv5UqrttLGaPGQR-23" style="edgeStyle=orthogonalEdgeStyle;rounded=0;orthogonalLoop=1;jettySize=auto;html=1;entryX=-0.01;entryY=0.34;entryDx=0;entryDy=0;entryPerimeter=0;" parent="1" source="I2a9pSv5UqrttLGaPGQR-13" target="I2a9pSv5UqrttLGaPGQR-15" edge="1">
          <mxGeometry relative="1" as="geometry" />
        </mxCell>
        <mxCell id="I2a9pSv5UqrttLGaPGQR-24" value="Worker" style="swimlane;fontStyle=0;childLayout=stackLayout;horizontal=1;startSize=30;horizontalStack=0;resizeParent=1;resizeParentMax=0;resizeLast=0;collapsible=1;marginBottom=0;whiteSpace=wrap;html=1;" parent="1" vertex="1">
          <mxGeometry x="130" y="-490" width="140" height="180" as="geometry" />
        </mxCell>
        <mxCell id="I2a9pSv5UqrttLGaPGQR-25" value="id" style="text;strokeColor=none;fillColor=none;align=left;verticalAlign=middle;spacingLeft=4;spacingRight=4;overflow=hidden;points=[[0,0.5],[1,0.5]];portConstraint=eastwest;rotatable=0;whiteSpace=wrap;html=1;" parent="I2a9pSv5UqrttLGaPGQR-24" vertex="1">
          <mxGeometry y="30" width="140" height="30" as="geometry" />
        </mxCell>
        <mxCell id="I2a9pSv5UqrttLGaPGQR-26" value="iin" style="text;strokeColor=none;fillColor=none;align=left;verticalAlign=middle;spacingLeft=4;spacingRight=4;overflow=hidden;points=[[0,0.5],[1,0.5]];portConstraint=eastwest;rotatable=0;whiteSpace=wrap;html=1;" parent="I2a9pSv5UqrttLGaPGQR-24" vertex="1">
          <mxGeometry y="60" width="140" height="30" as="geometry" />
        </mxCell>
        <mxCell id="I2a9pSv5UqrttLGaPGQR-27" value="fio" style="text;strokeColor=none;fillColor=none;align=left;verticalAlign=middle;spacingLeft=4;spacingRight=4;overflow=hidden;points=[[0,0.5],[1,0.5]];portConstraint=eastwest;rotatable=0;whiteSpace=wrap;html=1;" parent="I2a9pSv5UqrttLGaPGQR-24" vertex="1">
          <mxGeometry y="90" width="140" height="30" as="geometry" />
        </mxCell>
        <mxCell id="I2a9pSv5UqrttLGaPGQR-28" value="position(char)" style="text;strokeColor=none;fillColor=none;align=left;verticalAlign=middle;spacingLeft=4;spacingRight=4;overflow=hidden;points=[[0,0.5],[1,0.5]];portConstraint=eastwest;rotatable=0;whiteSpace=wrap;html=1;" parent="I2a9pSv5UqrttLGaPGQR-24" vertex="1">
          <mxGeometry y="120" width="140" height="30" as="geometry" />
        </mxCell>
        <mxCell id="I2a9pSv5UqrttLGaPGQR-34" value="salary(number)" style="text;strokeColor=none;fillColor=none;align=left;verticalAlign=middle;spacingLeft=4;spacingRight=4;overflow=hidden;points=[[0,0.5],[1,0.5]];portConstraint=eastwest;rotatable=0;whiteSpace=wrap;html=1;" parent="I2a9pSv5UqrttLGaPGQR-24" vertex="1">
          <mxGeometry y="150" width="140" height="30" as="geometry" />
        </mxCell>
        <mxCell id="I2a9pSv5UqrttLGaPGQR-36" value="Slowly, but simple" style="text;html=1;strokeColor=none;fillColor=none;align=center;verticalAlign=middle;whiteSpace=wrap;rounded=0;" parent="1" vertex="1">
          <mxGeometry x="135" y="-550" width="125" height="30" as="geometry" />
        </mxCell>
        <mxCell id="I2a9pSv5UqrttLGaPGQR-37" style="edgeStyle=orthogonalEdgeStyle;rounded=0;orthogonalLoop=1;jettySize=auto;html=1;entryX=0;entryY=0.5;entryDx=0;entryDy=0;" parent="1" source="I2a9pSv5UqrttLGaPGQR-17" target="I2a9pSv5UqrttLGaPGQR-20" edge="1">
          <mxGeometry relative="1" as="geometry" />
        </mxCell>
        <mxCell id="I2a9pSv5UqrttLGaPGQR-38" value="Worker" style="swimlane;fontStyle=0;childLayout=stackLayout;horizontal=1;startSize=30;horizontalStack=0;resizeParent=1;resizeParentMax=0;resizeLast=0;collapsible=1;marginBottom=0;whiteSpace=wrap;html=1;" parent="1" vertex="1">
          <mxGeometry x="150" y="20" width="140" height="180" as="geometry" />
        </mxCell>
        <mxCell id="I2a9pSv5UqrttLGaPGQR-39" value="id" style="text;strokeColor=none;fillColor=none;align=left;verticalAlign=middle;spacingLeft=4;spacingRight=4;overflow=hidden;points=[[0,0.5],[1,0.5]];portConstraint=eastwest;rotatable=0;whiteSpace=wrap;html=1;" parent="I2a9pSv5UqrttLGaPGQR-38" vertex="1">
          <mxGeometry y="30" width="140" height="30" as="geometry" />
        </mxCell>
        <mxCell id="I2a9pSv5UqrttLGaPGQR-40" value="iin" style="text;strokeColor=none;fillColor=none;align=left;verticalAlign=middle;spacingLeft=4;spacingRight=4;overflow=hidden;points=[[0,0.5],[1,0.5]];portConstraint=eastwest;rotatable=0;whiteSpace=wrap;html=1;" parent="I2a9pSv5UqrttLGaPGQR-38" vertex="1">
          <mxGeometry y="60" width="140" height="30" as="geometry" />
        </mxCell>
        <mxCell id="I2a9pSv5UqrttLGaPGQR-41" value="fio" style="text;strokeColor=none;fillColor=none;align=left;verticalAlign=middle;spacingLeft=4;spacingRight=4;overflow=hidden;points=[[0,0.5],[1,0.5]];portConstraint=eastwest;rotatable=0;whiteSpace=wrap;html=1;" parent="I2a9pSv5UqrttLGaPGQR-38" vertex="1">
          <mxGeometry y="90" width="140" height="30" as="geometry" />
        </mxCell>
        <mxCell id="I2a9pSv5UqrttLGaPGQR-42" value="position(char)" style="text;strokeColor=none;fillColor=none;align=left;verticalAlign=middle;spacingLeft=4;spacingRight=4;overflow=hidden;points=[[0,0.5],[1,0.5]];portConstraint=eastwest;rotatable=0;whiteSpace=wrap;html=1;" parent="I2a9pSv5UqrttLGaPGQR-38" vertex="1">
          <mxGeometry y="120" width="140" height="30" as="geometry" />
        </mxCell>
        <mxCell id="I2a9pSv5UqrttLGaPGQR-43" value="salary(number)" style="text;strokeColor=none;fillColor=none;align=left;verticalAlign=middle;spacingLeft=4;spacingRight=4;overflow=hidden;points=[[0,0.5],[1,0.5]];portConstraint=eastwest;rotatable=0;whiteSpace=wrap;html=1;" parent="I2a9pSv5UqrttLGaPGQR-38" vertex="1">
          <mxGeometry y="150" width="140" height="30" as="geometry" />
        </mxCell>
        <mxCell id="I2a9pSv5UqrttLGaPGQR-44" value="HTML FORM" style="text;html=1;strokeColor=none;fillColor=none;align=center;verticalAlign=middle;whiteSpace=wrap;rounded=0;" parent="1" vertex="1">
          <mxGeometry x="150" y="-20" width="140" height="30" as="geometry" />
        </mxCell>
        <mxCell id="I2a9pSv5UqrttLGaPGQR-45" value="" style="shape=flexArrow;endArrow=classic;html=1;rounded=0;" parent="1" edge="1">
          <mxGeometry width="50" height="50" relative="1" as="geometry">
            <mxPoint x="325" y="170" as="sourcePoint" />
            <mxPoint x="465" y="160" as="targetPoint" />
          </mxGeometry>
        </mxCell>
        <mxCell id="I2a9pSv5UqrttLGaPGQR-50" style="edgeStyle=orthogonalEdgeStyle;rounded=0;orthogonalLoop=1;jettySize=auto;html=1;entryX=0.569;entryY=0.131;entryDx=0;entryDy=0;entryPerimeter=0;" parent="1" source="I2a9pSv5UqrttLGaPGQR-46" target="I2a9pSv5UqrttLGaPGQR-48" edge="1">
          <mxGeometry relative="1" as="geometry" />
        </mxCell>
        <mxCell id="I2a9pSv5UqrttLGaPGQR-46" value="сериализация,&amp;nbsp;&lt;br&gt;валидация, обработка" style="shape=step;perimeter=stepPerimeter;whiteSpace=wrap;html=1;fixedSize=1;" parent="1" vertex="1">
          <mxGeometry x="490" y="110" width="120" height="80" as="geometry" />
        </mxCell>
        <mxCell id="I2a9pSv5UqrttLGaPGQR-51" style="edgeStyle=orthogonalEdgeStyle;rounded=0;orthogonalLoop=1;jettySize=auto;html=1;" parent="1" source="I2a9pSv5UqrttLGaPGQR-48" target="I2a9pSv5UqrttLGaPGQR-4" edge="1">
          <mxGeometry relative="1" as="geometry" />
        </mxCell>
        <mxCell id="I2a9pSv5UqrttLGaPGQR-48" value="ORM" style="shape=tape;whiteSpace=wrap;html=1;fillColor=#fff2cc;strokeColor=#d6b656;" parent="1" vertex="1">
          <mxGeometry x="650" y="200" width="120" height="100" as="geometry" />
        </mxCell>
        <mxCell id="I2a9pSv5UqrttLGaPGQR-52" value="models.Worker.object.create(...)" style="text;html=1;strokeColor=none;fillColor=none;align=center;verticalAlign=middle;whiteSpace=wrap;rounded=0;" parent="1" vertex="1">
          <mxGeometry x="650" y="92.5" width="200" height="35" as="geometry" />
        </mxCell>
        <mxCell id="I2a9pSv5UqrttLGaPGQR-53" value="JSON" style="text;html=1;strokeColor=none;fillColor=none;align=center;verticalAlign=middle;whiteSpace=wrap;rounded=0;" parent="1" vertex="1">
          <mxGeometry x="350" y="120" width="60" height="30" as="geometry" />
        </mxCell>
        <mxCell id="I2a9pSv5UqrttLGaPGQR-54" value="XML" style="text;html=1;strokeColor=none;fillColor=none;align=center;verticalAlign=middle;whiteSpace=wrap;rounded=0;" parent="1" vertex="1">
          <mxGeometry x="350" y="60" width="60" height="30" as="geometry" />
        </mxCell>
        <mxCell id="I2a9pSv5UqrttLGaPGQR-55" value="SOAP" style="text;html=1;strokeColor=none;fillColor=none;align=center;verticalAlign=middle;whiteSpace=wrap;rounded=0;" parent="1" vertex="1">
          <mxGeometry x="350" y="20" width="60" height="30" as="geometry" />
        </mxCell>
        <mxCell id="ZHkptlCxgTvAuOqKbXYs-1" value="django" style="shape=hexagon;perimeter=hexagonPerimeter2;whiteSpace=wrap;html=1;fixedSize=1;fillColor=#f8cecc;strokeColor=#b85450;" parent="1" vertex="1">
          <mxGeometry x="410" y="530" width="120" height="80" as="geometry" />
        </mxCell>
        <mxCell id="ZHkptlCxgTvAuOqKbXYs-2" value="api_view" style="shape=note;whiteSpace=wrap;html=1;backgroundOutline=1;darkOpacity=0.05;fillColor=#d5e8d4;strokeColor=#82b366;" parent="1" vertex="1">
          <mxGeometry x="235" y="510" width="80" height="100" as="geometry" />
        </mxCell>
        <mxCell id="ZHkptlCxgTvAuOqKbXYs-3" style="edgeStyle=orthogonalEdgeStyle;rounded=0;orthogonalLoop=1;jettySize=auto;html=1;" parent="1" edge="1">
          <mxGeometry relative="1" as="geometry">
            <mxPoint x="325" y="530" as="sourcePoint" />
            <mxPoint x="410" y="530" as="targetPoint" />
          </mxGeometry>
        </mxCell>
        <mxCell id="ZHkptlCxgTvAuOqKbXYs-5" value="GET, POST..." style="text;html=1;strokeColor=none;fillColor=none;align=center;verticalAlign=middle;whiteSpace=wrap;rounded=0;" parent="1" vertex="1">
          <mxGeometry x="340" y="460" width="60" height="30" as="geometry" />
        </mxCell>
        <mxCell id="ZHkptlCxgTvAuOqKbXYs-13" style="edgeStyle=orthogonalEdgeStyle;rounded=0;orthogonalLoop=1;jettySize=auto;html=1;" parent="1" source="ZHkptlCxgTvAuOqKbXYs-6" target="ZHkptlCxgTvAuOqKbXYs-12" edge="1">
          <mxGeometry relative="1" as="geometry" />
        </mxCell>
        <mxCell id="ZHkptlCxgTvAuOqKbXYs-6" value="def" style="shape=parallelogram;perimeter=parallelogramPerimeter;whiteSpace=wrap;html=1;fixedSize=1;" parent="1" vertex="1">
          <mxGeometry x="640" y="540" width="120" height="60" as="geometry" />
        </mxCell>
        <mxCell id="ZHkptlCxgTvAuOqKbXYs-7" style="edgeStyle=orthogonalEdgeStyle;rounded=0;orthogonalLoop=1;jettySize=auto;html=1;" parent="1" edge="1">
          <mxGeometry relative="1" as="geometry">
            <mxPoint x="560" y="530" as="sourcePoint" />
            <mxPoint x="640" y="530" as="targetPoint" />
          </mxGeometry>
        </mxCell>
        <mxCell id="ZHkptlCxgTvAuOqKbXYs-9" value="" style="shape=flexArrow;endArrow=classic;html=1;rounded=0;" parent="1" edge="1">
          <mxGeometry width="50" height="50" relative="1" as="geometry">
            <mxPoint x="620" y="610" as="sourcePoint" />
            <mxPoint x="540" y="610" as="targetPoint" />
          </mxGeometry>
        </mxCell>
        <mxCell id="ZHkptlCxgTvAuOqKbXYs-11" value="" style="shape=flexArrow;endArrow=classic;html=1;rounded=0;" parent="1" edge="1">
          <mxGeometry width="50" height="50" relative="1" as="geometry">
            <mxPoint x="410" y="610" as="sourcePoint" />
            <mxPoint x="330" y="609.43" as="targetPoint" />
          </mxGeometry>
        </mxCell>
        <mxCell id="ZHkptlCxgTvAuOqKbXYs-12" value="db" style="shape=cylinder3;whiteSpace=wrap;html=1;boundedLbl=1;backgroundOutline=1;size=15;" parent="1" vertex="1">
          <mxGeometry x="820" y="580" width="60" height="80" as="geometry" />
        </mxCell>
        <mxCell id="ZHkptlCxgTvAuOqKbXYs-14" value="BACKEND" style="text;html=1;strokeColor=none;fillColor=none;align=center;verticalAlign=middle;whiteSpace=wrap;rounded=0;" parent="1" vertex="1">
          <mxGeometry x="490" y="680" width="60" height="30" as="geometry" />
        </mxCell>
        <mxCell id="ZHkptlCxgTvAuOqKbXYs-15" value="ORM" style="text;html=1;strokeColor=none;fillColor=none;align=center;verticalAlign=middle;whiteSpace=wrap;rounded=0;" parent="1" vertex="1">
          <mxGeometry x="790" y="530" width="60" height="30" as="geometry" />
        </mxCell>
        <mxCell id="ZHkptlCxgTvAuOqKbXYs-16" value="НА ЧИСТОМ API реализовать всю систему" style="text;html=1;strokeColor=none;fillColor=none;align=center;verticalAlign=middle;whiteSpace=wrap;rounded=0;" parent="1" vertex="1">
          <mxGeometry x="380" y="720" width="270" height="50" as="geometry" />
        </mxCell>
        <mxCell id="ZHkptlCxgTvAuOqKbXYs-17" value="" style="endArrow=none;html=1;rounded=0;" parent="1" edge="1">
          <mxGeometry width="50" height="50" relative="1" as="geometry">
            <mxPoint x="420" y="1000" as="sourcePoint" />
            <mxPoint x="810" y="990" as="targetPoint" />
          </mxGeometry>
        </mxCell>
        <mxCell id="ZHkptlCxgTvAuOqKbXYs-18" value="" style="endArrow=none;html=1;rounded=0;" parent="1" edge="1">
          <mxGeometry width="50" height="50" relative="1" as="geometry">
            <mxPoint x="420" y="1000" as="sourcePoint" />
            <mxPoint x="430" y="790" as="targetPoint" />
          </mxGeometry>
        </mxCell>
        <mxCell id="ZHkptlCxgTvAuOqKbXYs-19" value="время" style="text;html=1;strokeColor=none;fillColor=none;align=center;verticalAlign=middle;whiteSpace=wrap;rounded=0;" parent="1" vertex="1">
          <mxGeometry x="550" y="1020" width="60" height="30" as="geometry" />
        </mxCell>
        <mxCell id="ZHkptlCxgTvAuOqKbXYs-20" value="сложность" style="text;html=1;strokeColor=none;fillColor=none;align=center;verticalAlign=middle;whiteSpace=wrap;rounded=0;" parent="1" vertex="1">
          <mxGeometry x="350" y="870" width="60" height="30" as="geometry" />
        </mxCell>
        <mxCell id="ZHkptlCxgTvAuOqKbXYs-21" value="" style="endArrow=none;html=1;rounded=0;" parent="1" edge="1">
          <mxGeometry width="50" height="50" relative="1" as="geometry">
            <mxPoint x="420" y="990" as="sourcePoint" />
            <mxPoint x="660" y="690" as="targetPoint" />
            <Array as="points">
              <mxPoint x="560" y="960" />
            </Array>
          </mxGeometry>
        </mxCell>
        <mxCell id="ZHkptlCxgTvAuOqKbXYs-22" value="" style="endArrow=none;html=1;rounded=0;" parent="1" edge="1">
          <mxGeometry width="50" height="50" relative="1" as="geometry">
            <mxPoint x="910" y="970" as="sourcePoint" />
            <mxPoint x="1300" y="960" as="targetPoint" />
          </mxGeometry>
        </mxCell>
        <mxCell id="ZHkptlCxgTvAuOqKbXYs-23" value="" style="endArrow=none;html=1;rounded=0;" parent="1" edge="1">
          <mxGeometry width="50" height="50" relative="1" as="geometry">
            <mxPoint x="910" y="970" as="sourcePoint" />
            <mxPoint x="920" y="760" as="targetPoint" />
          </mxGeometry>
        </mxCell>
        <mxCell id="ZHkptlCxgTvAuOqKbXYs-24" value="время" style="text;html=1;strokeColor=none;fillColor=none;align=center;verticalAlign=middle;whiteSpace=wrap;rounded=0;" parent="1" vertex="1">
          <mxGeometry x="1040" y="990" width="60" height="30" as="geometry" />
        </mxCell>
        <mxCell id="ZHkptlCxgTvAuOqKbXYs-25" value="сложность" style="text;html=1;strokeColor=none;fillColor=none;align=center;verticalAlign=middle;whiteSpace=wrap;rounded=0;" parent="1" vertex="1">
          <mxGeometry x="840" y="840" width="60" height="30" as="geometry" />
        </mxCell>
        <mxCell id="ZHkptlCxgTvAuOqKbXYs-26" value="" style="endArrow=none;html=1;rounded=0;" parent="1" edge="1">
          <mxGeometry width="50" height="50" relative="1" as="geometry">
            <mxPoint x="910" y="960" as="sourcePoint" />
            <mxPoint x="1340" y="650" as="targetPoint" />
            <Array as="points">
              <mxPoint x="1040" y="880" />
            </Array>
          </mxGeometry>
        </mxCell>
        <mxCell id="ZHkptlCxgTvAuOqKbXYs-27" value="ORM" style="text;html=1;strokeColor=none;fillColor=none;align=center;verticalAlign=middle;whiteSpace=wrap;rounded=0;" parent="1" vertex="1">
          <mxGeometry x="970" y="990" width="60" height="30" as="geometry" />
        </mxCell>
        <mxCell id="ZHkptlCxgTvAuOqKbXYs-28" value="SQL" style="text;html=1;strokeColor=none;fillColor=none;align=center;verticalAlign=middle;whiteSpace=wrap;rounded=0;" parent="1" vertex="1">
          <mxGeometry x="440" y="1020" width="60" height="30" as="geometry" />
        </mxCell>
        <mxCell id="Ry-wdNPNn0yCc1i3UbVn-9" style="edgeStyle=orthogonalEdgeStyle;rounded=0;orthogonalLoop=1;jettySize=auto;html=1;" edge="1" parent="1" source="Ry-wdNPNn0yCc1i3UbVn-1" target="Ry-wdNPNn0yCc1i3UbVn-4">
          <mxGeometry relative="1" as="geometry" />
        </mxCell>
        <mxCell id="Ry-wdNPNn0yCc1i3UbVn-1" value="Пользователь" style="shape=umlActor;verticalLabelPosition=bottom;verticalAlign=top;html=1;outlineConnect=0;" vertex="1" parent="1">
          <mxGeometry x="930" y="-430" width="30" height="60" as="geometry" />
        </mxCell>
        <mxCell id="Ry-wdNPNn0yCc1i3UbVn-3" value="" style="shape=card;whiteSpace=wrap;html=1;" vertex="1" parent="1">
          <mxGeometry x="1040" y="-640" width="220" height="220" as="geometry" />
        </mxCell>
        <mxCell id="Ry-wdNPNn0yCc1i3UbVn-2" value="item" style="shape=note;whiteSpace=wrap;html=1;backgroundOutline=1;darkOpacity=0.05;" vertex="1" parent="1">
          <mxGeometry x="1050" y="-520" width="90" height="90" as="geometry" />
        </mxCell>
        <mxCell id="Ry-wdNPNn0yCc1i3UbVn-20" style="edgeStyle=orthogonalEdgeStyle;rounded=0;orthogonalLoop=1;jettySize=auto;html=1;entryX=0;entryY=0.5;entryDx=0;entryDy=0;" edge="1" parent="1" source="Ry-wdNPNn0yCc1i3UbVn-4" target="Ry-wdNPNn0yCc1i3UbVn-19">
          <mxGeometry relative="1" as="geometry" />
        </mxCell>
        <mxCell id="Ry-wdNPNn0yCc1i3UbVn-21" style="edgeStyle=orthogonalEdgeStyle;rounded=0;orthogonalLoop=1;jettySize=auto;html=1;entryX=0;entryY=0.5;entryDx=0;entryDy=0;" edge="1" parent="1" source="Ry-wdNPNn0yCc1i3UbVn-4" target="Ry-wdNPNn0yCc1i3UbVn-18">
          <mxGeometry relative="1" as="geometry" />
        </mxCell>
        <mxCell id="Ry-wdNPNn0yCc1i3UbVn-22" style="edgeStyle=orthogonalEdgeStyle;rounded=0;orthogonalLoop=1;jettySize=auto;html=1;entryX=-0.029;entryY=0.544;entryDx=0;entryDy=0;entryPerimeter=0;" edge="1" parent="1" source="Ry-wdNPNn0yCc1i3UbVn-4" target="Ry-wdNPNn0yCc1i3UbVn-17">
          <mxGeometry relative="1" as="geometry" />
        </mxCell>
        <mxCell id="Ry-wdNPNn0yCc1i3UbVn-4" value="like" style="rhombus;whiteSpace=wrap;html=1;" vertex="1" parent="1">
          <mxGeometry x="1050" y="-460" width="45" height="30" as="geometry" />
        </mxCell>
        <mxCell id="Ry-wdNPNn0yCc1i3UbVn-5" value="dislike" style="shape=document;whiteSpace=wrap;html=1;boundedLbl=1;" vertex="1" parent="1">
          <mxGeometry x="1095" y="-460" width="50" height="20" as="geometry" />
        </mxCell>
        <mxCell id="Ry-wdNPNn0yCc1i3UbVn-6" value="" style="shape=note;whiteSpace=wrap;html=1;backgroundOutline=1;darkOpacity=0.05;" vertex="1" parent="1">
          <mxGeometry x="1165" y="-520" width="90" height="90" as="geometry" />
        </mxCell>
        <mxCell id="Ry-wdNPNn0yCc1i3UbVn-7" value="" style="rhombus;whiteSpace=wrap;html=1;" vertex="1" parent="1">
          <mxGeometry x="1165" y="-460" width="45" height="30" as="geometry" />
        </mxCell>
        <mxCell id="Ry-wdNPNn0yCc1i3UbVn-8" value="" style="shape=document;whiteSpace=wrap;html=1;boundedLbl=1;" vertex="1" parent="1">
          <mxGeometry x="1210" y="-460" width="50" height="20" as="geometry" />
        </mxCell>
        <mxCell id="Ry-wdNPNn0yCc1i3UbVn-10" value="Архитектуры веб-приложение" style="text;html=1;strokeColor=none;fillColor=none;align=center;verticalAlign=middle;whiteSpace=wrap;rounded=0;" vertex="1" parent="1">
          <mxGeometry x="880" y="-90" width="215" height="60" as="geometry" />
        </mxCell>
        <mxCell id="Ry-wdNPNn0yCc1i3UbVn-12" value="DB" style="shape=cylinder3;whiteSpace=wrap;html=1;boundedLbl=1;backgroundOutline=1;size=15;" vertex="1" parent="1">
          <mxGeometry x="1340" y="-450" width="260" height="280" as="geometry" />
        </mxCell>
        <mxCell id="Ry-wdNPNn0yCc1i3UbVn-14" value="Rating" style="swimlane;fontStyle=0;childLayout=stackLayout;horizontal=1;startSize=30;horizontalStack=0;resizeParent=1;resizeParentMax=0;resizeLast=0;collapsible=1;marginBottom=0;whiteSpace=wrap;html=1;" vertex="1" parent="1">
          <mxGeometry x="1290" y="-380" width="140" height="180" as="geometry" />
        </mxCell>
        <mxCell id="Ry-wdNPNn0yCc1i3UbVn-15" value="id" style="text;strokeColor=none;fillColor=none;align=left;verticalAlign=middle;spacingLeft=4;spacingRight=4;overflow=hidden;points=[[0,0.5],[1,0.5]];portConstraint=eastwest;rotatable=0;whiteSpace=wrap;html=1;" vertex="1" parent="Ry-wdNPNn0yCc1i3UbVn-14">
          <mxGeometry y="30" width="140" height="30" as="geometry" />
        </mxCell>
        <mxCell id="Ry-wdNPNn0yCc1i3UbVn-16" value="date_time" style="text;strokeColor=none;fillColor=none;align=left;verticalAlign=middle;spacingLeft=4;spacingRight=4;overflow=hidden;points=[[0,0.5],[1,0.5]];portConstraint=eastwest;rotatable=0;whiteSpace=wrap;html=1;" vertex="1" parent="Ry-wdNPNn0yCc1i3UbVn-14">
          <mxGeometry y="60" width="140" height="30" as="geometry" />
        </mxCell>
        <mxCell id="Ry-wdNPNn0yCc1i3UbVn-17" value="user_id" style="text;strokeColor=none;fillColor=none;align=left;verticalAlign=middle;spacingLeft=4;spacingRight=4;overflow=hidden;points=[[0,0.5],[1,0.5]];portConstraint=eastwest;rotatable=0;whiteSpace=wrap;html=1;" vertex="1" parent="Ry-wdNPNn0yCc1i3UbVn-14">
          <mxGeometry y="90" width="140" height="30" as="geometry" />
        </mxCell>
        <mxCell id="Ry-wdNPNn0yCc1i3UbVn-18" value="value" style="text;strokeColor=none;fillColor=none;align=left;verticalAlign=middle;spacingLeft=4;spacingRight=4;overflow=hidden;points=[[0,0.5],[1,0.5]];portConstraint=eastwest;rotatable=0;whiteSpace=wrap;html=1;" vertex="1" parent="Ry-wdNPNn0yCc1i3UbVn-14">
          <mxGeometry y="120" width="140" height="30" as="geometry" />
        </mxCell>
        <mxCell id="Ry-wdNPNn0yCc1i3UbVn-19" value="post_id" style="text;strokeColor=none;fillColor=none;align=left;verticalAlign=middle;spacingLeft=4;spacingRight=4;overflow=hidden;points=[[0,0.5],[1,0.5]];portConstraint=eastwest;rotatable=0;whiteSpace=wrap;html=1;" vertex="1" parent="Ry-wdNPNn0yCc1i3UbVn-14">
          <mxGeometry y="150" width="140" height="30" as="geometry" />
        </mxCell>
        <mxCell id="Ry-wdNPNn0yCc1i3UbVn-23" value="django / Fastapi / Gin" style="shape=cube;whiteSpace=wrap;html=1;boundedLbl=1;backgroundOutline=1;darkOpacity=0.05;darkOpacity2=0.1;" vertex="1" parent="1">
          <mxGeometry x="1040" y="-290" width="170" height="110" as="geometry" />
        </mxCell>
        <mxCell id="Ry-wdNPNn0yCc1i3UbVn-26" value="JSON" style="text;html=1;strokeColor=none;fillColor=none;align=center;verticalAlign=middle;whiteSpace=wrap;rounded=0;" vertex="1" parent="1">
          <mxGeometry x="1080" y="-365" width="85" height="20" as="geometry" />
        </mxCell>
        <mxCell id="Ry-wdNPNn0yCc1i3UbVn-28" style="edgeStyle=orthogonalEdgeStyle;rounded=0;orthogonalLoop=1;jettySize=auto;html=1;" edge="1" parent="1" source="Ry-wdNPNn0yCc1i3UbVn-27">
          <mxGeometry relative="1" as="geometry">
            <mxPoint x="1610" y="340" as="targetPoint" />
          </mxGeometry>
        </mxCell>
        <mxCell id="Ry-wdNPNn0yCc1i3UbVn-27" value="" style="shape=document;whiteSpace=wrap;html=1;boundedLbl=1;" vertex="1" parent="1">
          <mxGeometry x="1500" y="200" width="120" height="80" as="geometry" />
        </mxCell>
        <mxCell id="Ry-wdNPNn0yCc1i3UbVn-29" value="Грязная вода - эмиссия(выброс)" style="text;html=1;strokeColor=none;fillColor=none;align=center;verticalAlign=middle;whiteSpace=wrap;rounded=0;" vertex="1" parent="1">
          <mxGeometry x="1630" y="310" width="120" height="50" as="geometry" />
        </mxCell>
        <mxCell id="Ry-wdNPNn0yCc1i3UbVn-30" value="Пыль" style="text;html=1;strokeColor=none;fillColor=none;align=center;verticalAlign=middle;whiteSpace=wrap;rounded=0;" vertex="1" parent="1">
          <mxGeometry x="1760" y="305" width="60" height="30" as="geometry" />
        </mxCell>
        <mxCell id="Ry-wdNPNn0yCc1i3UbVn-31" value="Химикаты" style="text;html=1;strokeColor=none;fillColor=none;align=center;verticalAlign=middle;whiteSpace=wrap;rounded=0;" vertex="1" parent="1">
          <mxGeometry x="1710" y="280" width="60" height="30" as="geometry" />
        </mxCell>
        <mxCell id="Ry-wdNPNn0yCc1i3UbVn-32" value="контроллер" style="shape=cube;whiteSpace=wrap;html=1;boundedLbl=1;backgroundOutline=1;darkOpacity=0.05;darkOpacity2=0.1;" vertex="1" parent="1">
          <mxGeometry x="1545" y="255" width="115" height="45" as="geometry" />
        </mxCell>
        <mxCell id="Ry-wdNPNn0yCc1i3UbVn-34" style="edgeStyle=orthogonalEdgeStyle;rounded=0;orthogonalLoop=1;jettySize=auto;html=1;" edge="1" parent="1" source="Ry-wdNPNn0yCc1i3UbVn-33" target="Ry-wdNPNn0yCc1i3UbVn-32">
          <mxGeometry relative="1" as="geometry" />
        </mxCell>
        <mxCell id="Ry-wdNPNn0yCc1i3UbVn-36" style="edgeStyle=orthogonalEdgeStyle;rounded=0;orthogonalLoop=1;jettySize=auto;html=1;" edge="1" parent="1" source="Ry-wdNPNn0yCc1i3UbVn-33" target="Ry-wdNPNn0yCc1i3UbVn-35">
          <mxGeometry relative="1" as="geometry" />
        </mxCell>
        <mxCell id="Ry-wdNPNn0yCc1i3UbVn-33" value="Эколог" style="shape=umlActor;verticalLabelPosition=bottom;verticalAlign=top;html=1;outlineConnect=0;" vertex="1" parent="1">
          <mxGeometry x="1592.5" y="90" width="30" height="60" as="geometry" />
        </mxCell>
        <mxCell id="Ry-wdNPNn0yCc1i3UbVn-35" value="комиссия" style="shape=callout;whiteSpace=wrap;html=1;perimeter=calloutPerimeter;" vertex="1" parent="1">
          <mxGeometry x="1810" y="60" width="120" height="80" as="geometry" />
        </mxCell>
        <mxCell id="Ry-wdNPNn0yCc1i3UbVn-37" value="человеческий фактор" style="text;html=1;strokeColor=none;fillColor=none;align=center;verticalAlign=middle;whiteSpace=wrap;rounded=0;" vertex="1" parent="1">
          <mxGeometry x="1660" y="52.5" width="90" height="40" as="geometry" />
        </mxCell>
        <mxCell id="Ry-wdNPNn0yCc1i3UbVn-38" value="Астана" style="ellipse;shape=cloud;whiteSpace=wrap;html=1;fillColor=#fff2cc;strokeColor=#d6b656;" vertex="1" parent="1">
          <mxGeometry x="2040" y="120" width="120" height="80" as="geometry" />
        </mxCell>
        <mxCell id="Ry-wdNPNn0yCc1i3UbVn-40" value="" style="shape=flexArrow;endArrow=classic;html=1;rounded=0;" edge="1" parent="1" target="Ry-wdNPNn0yCc1i3UbVn-43">
          <mxGeometry width="50" height="50" relative="1" as="geometry">
            <mxPoint x="1665" y="260" as="sourcePoint" />
            <mxPoint x="1770" y="250" as="targetPoint" />
          </mxGeometry>
        </mxCell>
        <mxCell id="Ry-wdNPNn0yCc1i3UbVn-53" style="edgeStyle=orthogonalEdgeStyle;rounded=0;orthogonalLoop=1;jettySize=auto;html=1;entryX=0;entryY=0.5;entryDx=0;entryDy=0;entryPerimeter=0;" edge="1" parent="1" source="Ry-wdNPNn0yCc1i3UbVn-41" target="Ry-wdNPNn0yCc1i3UbVn-52">
          <mxGeometry relative="1" as="geometry" />
        </mxCell>
        <mxCell id="Ry-wdNPNn0yCc1i3UbVn-68" style="edgeStyle=orthogonalEdgeStyle;rounded=0;orthogonalLoop=1;jettySize=auto;html=1;" edge="1" parent="1" source="Ry-wdNPNn0yCc1i3UbVn-41" target="Ry-wdNPNn0yCc1i3UbVn-65">
          <mxGeometry relative="1" as="geometry">
            <Array as="points">
              <mxPoint x="1845" y="430" />
              <mxPoint x="2040" y="430" />
            </Array>
          </mxGeometry>
        </mxCell>
        <mxCell id="Ry-wdNPNn0yCc1i3UbVn-41" value="ядро(сервер)" style="shape=cube;whiteSpace=wrap;html=1;boundedLbl=1;backgroundOutline=1;darkOpacity=0.05;darkOpacity2=0.1;fillColor=#e1d5e7;strokeColor=#9673a6;" vertex="1" parent="1">
          <mxGeometry x="1790" y="195" width="110" height="60" as="geometry" />
        </mxCell>
        <mxCell id="Ry-wdNPNn0yCc1i3UbVn-42" value="радиомост(тарелка)" style="text;html=1;strokeColor=none;fillColor=none;align=center;verticalAlign=middle;whiteSpace=wrap;rounded=0;" vertex="1" parent="1">
          <mxGeometry x="1650" y="200" width="100" height="40" as="geometry" />
        </mxCell>
        <mxCell id="Ry-wdNPNn0yCc1i3UbVn-44" value="Системные администраторы" style="text;html=1;strokeColor=none;fillColor=none;align=center;verticalAlign=middle;whiteSpace=wrap;rounded=0;" vertex="1" parent="1">
          <mxGeometry x="1660" y="360" width="110" height="40" as="geometry" />
        </mxCell>
        <mxCell id="Ry-wdNPNn0yCc1i3UbVn-45" value="" style="shape=flexArrow;endArrow=classic;html=1;rounded=0;exitX=0;exitY=1;exitDx=0;exitDy=0;" edge="1" parent="1" source="Ry-wdNPNn0yCc1i3UbVn-47" target="Ry-wdNPNn0yCc1i3UbVn-38">
          <mxGeometry width="50" height="50" relative="1" as="geometry">
            <mxPoint x="1920" y="220" as="sourcePoint" />
            <mxPoint x="2025" y="210" as="targetPoint" />
          </mxGeometry>
        </mxCell>
        <mxCell id="Ry-wdNPNn0yCc1i3UbVn-46" value="ЭЦП" style="text;html=1;strokeColor=none;fillColor=none;align=center;verticalAlign=middle;whiteSpace=wrap;rounded=0;" vertex="1" parent="1">
          <mxGeometry x="1930" y="190" width="60" height="30" as="geometry" />
        </mxCell>
        <mxCell id="Ry-wdNPNn0yCc1i3UbVn-47" value="нет данных более 2 часов =&amp;gt; штрафы" style="text;html=1;strokeColor=none;fillColor=none;align=center;verticalAlign=middle;whiteSpace=wrap;rounded=0;" vertex="1" parent="1">
          <mxGeometry x="1940" y="220" width="140" height="50" as="geometry" />
        </mxCell>
        <mxCell id="Ry-wdNPNn0yCc1i3UbVn-48" value="АСУ ТП" style="text;html=1;strokeColor=none;fillColor=none;align=center;verticalAlign=middle;whiteSpace=wrap;rounded=0;" vertex="1" parent="1">
          <mxGeometry x="1520" y="360" width="120" height="40" as="geometry" />
        </mxCell>
        <mxCell id="Ry-wdNPNn0yCc1i3UbVn-51" value="web-разработчик" style="text;html=1;strokeColor=none;fillColor=none;align=center;verticalAlign=middle;whiteSpace=wrap;rounded=0;" vertex="1" parent="1">
          <mxGeometry x="1945" y="345" width="110" height="40" as="geometry" />
        </mxCell>
        <mxCell id="Ry-wdNPNn0yCc1i3UbVn-52" value="DB" style="shape=cylinder3;whiteSpace=wrap;html=1;boundedLbl=1;backgroundOutline=1;size=15;" vertex="1" parent="1">
          <mxGeometry x="1880" y="270" width="60" height="80" as="geometry" />
        </mxCell>
        <mxCell id="Ry-wdNPNn0yCc1i3UbVn-54" value="Диспетчер" style="shape=umlActor;verticalLabelPosition=bottom;verticalAlign=top;html=1;outlineConnect=0;" vertex="1" parent="1">
          <mxGeometry x="1640" y="560" width="30" height="60" as="geometry" />
        </mxCell>
        <mxCell id="Ry-wdNPNn0yCc1i3UbVn-55" value="видеостена" style="rounded=0;whiteSpace=wrap;html=1;" vertex="1" parent="1">
          <mxGeometry x="1715" y="540" width="100" height="40" as="geometry" />
        </mxCell>
        <mxCell id="Ry-wdNPNn0yCc1i3UbVn-66" style="edgeStyle=orthogonalEdgeStyle;rounded=0;orthogonalLoop=1;jettySize=auto;html=1;entryX=0.02;entryY=0.235;entryDx=0;entryDy=0;entryPerimeter=0;" edge="1" parent="1" source="Ry-wdNPNn0yCc1i3UbVn-56" target="Ry-wdNPNn0yCc1i3UbVn-65">
          <mxGeometry relative="1" as="geometry" />
        </mxCell>
        <mxCell id="Ry-wdNPNn0yCc1i3UbVn-56" value="" style="rounded=0;whiteSpace=wrap;html=1;" vertex="1" parent="1">
          <mxGeometry x="1835" y="540" width="100" height="40" as="geometry" />
        </mxCell>
        <mxCell id="Ry-wdNPNn0yCc1i3UbVn-58" value="" style="rounded=0;whiteSpace=wrap;html=1;" vertex="1" parent="1">
          <mxGeometry x="1715" y="600" width="100" height="40" as="geometry" />
        </mxCell>
        <mxCell id="Ry-wdNPNn0yCc1i3UbVn-67" style="edgeStyle=orthogonalEdgeStyle;rounded=0;orthogonalLoop=1;jettySize=auto;html=1;" edge="1" parent="1" source="Ry-wdNPNn0yCc1i3UbVn-59" target="Ry-wdNPNn0yCc1i3UbVn-65">
          <mxGeometry relative="1" as="geometry" />
        </mxCell>
        <mxCell id="Ry-wdNPNn0yCc1i3UbVn-59" value="" style="rounded=0;whiteSpace=wrap;html=1;" vertex="1" parent="1">
          <mxGeometry x="1835" y="600" width="100" height="40" as="geometry" />
        </mxCell>
        <mxCell id="Ry-wdNPNn0yCc1i3UbVn-61" value="HTTP" style="text;html=1;strokeColor=none;fillColor=none;align=center;verticalAlign=middle;whiteSpace=wrap;rounded=0;" vertex="1" parent="1">
          <mxGeometry x="1890" y="400" width="60" height="30" as="geometry" />
        </mxCell>
        <mxCell id="Ry-wdNPNn0yCc1i3UbVn-62" value="POST" style="text;html=1;strokeColor=none;fillColor=none;align=center;verticalAlign=middle;whiteSpace=wrap;rounded=0;" vertex="1" parent="1">
          <mxGeometry x="1840" y="440" width="60" height="30" as="geometry" />
        </mxCell>
        <mxCell id="Ry-wdNPNn0yCc1i3UbVn-63" value="{&quot;data1&quot;: 15.8, &quot;data2&quot;: 17}" style="text;html=1;strokeColor=none;fillColor=none;align=center;verticalAlign=middle;whiteSpace=wrap;rounded=0;" vertex="1" parent="1">
          <mxGeometry x="1865" y="440" width="190" height="50" as="geometry" />
        </mxCell>
        <mxCell id="Ry-wdNPNn0yCc1i3UbVn-64" value="JSON" style="text;html=1;strokeColor=none;fillColor=none;align=center;verticalAlign=middle;whiteSpace=wrap;rounded=0;" vertex="1" parent="1">
          <mxGeometry x="1980" y="400" width="60" height="30" as="geometry" />
        </mxCell>
        <mxCell id="Ry-wdNPNn0yCc1i3UbVn-65" value="сервер диспетчеризации" style="shape=cube;whiteSpace=wrap;html=1;boundedLbl=1;backgroundOutline=1;darkOpacity=0.05;darkOpacity2=0.1;" vertex="1" parent="1">
          <mxGeometry x="1980" y="550" width="120" height="80" as="geometry" />
        </mxCell>
        <mxCell id="Ry-wdNPNn0yCc1i3UbVn-69" value="Для оперативности" style="text;html=1;strokeColor=none;fillColor=none;align=center;verticalAlign=middle;whiteSpace=wrap;rounded=0;" vertex="1" parent="1">
          <mxGeometry x="1675" y="490" width="60" height="30" as="geometry" />
        </mxCell>
        <mxCell id="Ry-wdNPNn0yCc1i3UbVn-70" value="ИБ - информационная безопасность" style="text;html=1;strokeColor=none;fillColor=none;align=center;verticalAlign=middle;whiteSpace=wrap;rounded=0;" vertex="1" parent="1">
          <mxGeometry x="1710" y="150" width="160" height="30" as="geometry" />
        </mxCell>
        <mxCell id="Ry-wdNPNn0yCc1i3UbVn-71" value="HTTP" style="text;html=1;strokeColor=none;fillColor=none;align=center;verticalAlign=middle;whiteSpace=wrap;rounded=0;" vertex="1" parent="1">
          <mxGeometry x="1000" y="-370" width="60" height="30" as="geometry" />
        </mxCell>
        <mxCell id="Ry-wdNPNn0yCc1i3UbVn-72" value="SPA" style="text;html=1;strokeColor=none;fillColor=none;align=center;verticalAlign=middle;whiteSpace=wrap;rounded=0;" vertex="1" parent="1">
          <mxGeometry x="1105" y="-590" width="60" height="30" as="geometry" />
        </mxCell>
        <mxCell id="Ry-wdNPNn0yCc1i3UbVn-73" value="сериализация / валидация" style="text;html=1;strokeColor=none;fillColor=none;align=center;verticalAlign=middle;whiteSpace=wrap;rounded=0;" vertex="1" parent="1">
          <mxGeometry x="1180" y="-350" width="85" height="40" as="geometry" />
        </mxCell>
        <mxCell id="Ry-wdNPNn0yCc1i3UbVn-74" value="{&quot;user_id&quot;: 1354314,&quot;value&quot;: 7, &quot;post_id&quot;: 1354}" style="text;html=1;strokeColor=none;fillColor=none;align=center;verticalAlign=middle;whiteSpace=wrap;rounded=0;" vertex="1" parent="1">
          <mxGeometry x="1095" y="-140" width="305" height="40" as="geometry" />
        </mxCell>
        <mxCell id="Ry-wdNPNn0yCc1i3UbVn-75" value="СКУД - система контроля управления доступом" style="text;html=1;strokeColor=#6c8ebf;fillColor=#dae8fc;align=center;verticalAlign=middle;whiteSpace=wrap;rounded=0;" vertex="1" parent="1">
          <mxGeometry x="2240" y="-700" width="210" height="60" as="geometry" />
        </mxCell>
        <mxCell id="Ry-wdNPNn0yCc1i3UbVn-89" style="edgeStyle=orthogonalEdgeStyle;rounded=0;orthogonalLoop=1;jettySize=auto;html=1;entryX=0;entryY=0;entryDx=0;entryDy=30;entryPerimeter=0;" edge="1" parent="1" source="Ry-wdNPNn0yCc1i3UbVn-76" target="Ry-wdNPNn0yCc1i3UbVn-88">
          <mxGeometry relative="1" as="geometry" />
        </mxCell>
        <mxCell id="Ry-wdNPNn0yCc1i3UbVn-76" value="" style="shape=note;whiteSpace=wrap;html=1;backgroundOutline=1;darkOpacity=0.05;" vertex="1" parent="1">
          <mxGeometry x="1910" y="-335" width="70" height="85" as="geometry" />
        </mxCell>
        <mxCell id="Ry-wdNPNn0yCc1i3UbVn-77" value="openCv" style="shape=note;whiteSpace=wrap;html=1;backgroundOutline=1;darkOpacity=0.05;" vertex="1" parent="1">
          <mxGeometry x="2027.5" y="-335" width="75" height="75" as="geometry" />
        </mxCell>
        <mxCell id="Ry-wdNPNn0yCc1i3UbVn-78" value="" style="shape=note;whiteSpace=wrap;html=1;backgroundOutline=1;darkOpacity=0.05;" vertex="1" parent="1">
          <mxGeometry x="2145" y="-335" width="75" height="75" as="geometry" />
        </mxCell>
        <mxCell id="Ry-wdNPNn0yCc1i3UbVn-79" value="RFID" style="text;html=1;strokeColor=none;fillColor=none;align=center;verticalAlign=middle;whiteSpace=wrap;rounded=0;" vertex="1" parent="1">
          <mxGeometry x="1920" y="-375" width="60" height="30" as="geometry" />
        </mxCell>
        <mxCell id="Ry-wdNPNn0yCc1i3UbVn-80" value="Face ID" style="text;html=1;strokeColor=none;fillColor=none;align=center;verticalAlign=middle;whiteSpace=wrap;rounded=0;" vertex="1" parent="1">
          <mxGeometry x="2027.5" y="-375" width="60" height="30" as="geometry" />
        </mxCell>
        <mxCell id="Ry-wdNPNn0yCc1i3UbVn-82" value="Отпечатки пальцев" style="text;html=1;strokeColor=none;fillColor=none;align=center;verticalAlign=middle;whiteSpace=wrap;rounded=0;" vertex="1" parent="1">
          <mxGeometry x="2145" y="-380" width="60" height="30" as="geometry" />
        </mxCell>
        <mxCell id="Ry-wdNPNn0yCc1i3UbVn-84" value="работник 1" style="shape=umlActor;verticalLabelPosition=bottom;verticalAlign=top;html=1;outlineConnect=0;" vertex="1" parent="1">
          <mxGeometry x="1805" y="-650" width="30" height="60" as="geometry" />
        </mxCell>
        <mxCell id="Ry-wdNPNn0yCc1i3UbVn-85" value="работник 2" style="shape=umlActor;verticalLabelPosition=bottom;verticalAlign=top;html=1;outlineConnect=0;" vertex="1" parent="1">
          <mxGeometry x="1872.5" y="-655" width="30" height="60" as="geometry" />
        </mxCell>
        <mxCell id="Ry-wdNPNn0yCc1i3UbVn-86" value="id" style="shape=card;whiteSpace=wrap;html=1;" vertex="1" parent="1">
          <mxGeometry x="1790" y="-550" width="50" height="60" as="geometry" />
        </mxCell>
        <mxCell id="Ry-wdNPNn0yCc1i3UbVn-87" value="id" style="shape=card;whiteSpace=wrap;html=1;" vertex="1" parent="1">
          <mxGeometry x="1862.5" y="-550" width="50" height="60" as="geometry" />
        </mxCell>
        <mxCell id="Ry-wdNPNn0yCc1i3UbVn-94" style="edgeStyle=orthogonalEdgeStyle;rounded=0;orthogonalLoop=1;jettySize=auto;html=1;entryX=0;entryY=0;entryDx=75;entryDy=30;entryPerimeter=0;" edge="1" parent="1" source="Ry-wdNPNn0yCc1i3UbVn-88" target="Ry-wdNPNn0yCc1i3UbVn-76">
          <mxGeometry relative="1" as="geometry" />
        </mxCell>
        <mxCell id="Ry-wdNPNn0yCc1i3UbVn-88" value="сервером" style="shape=cube;whiteSpace=wrap;html=1;boundedLbl=1;backgroundOutline=1;darkOpacity=0.05;darkOpacity2=0.1;" vertex="1" parent="1">
          <mxGeometry x="2055" y="-570" width="120" height="80" as="geometry" />
        </mxCell>
        <mxCell id="Ry-wdNPNn0yCc1i3UbVn-90" value="HTTPS" style="text;html=1;strokeColor=none;fillColor=none;align=center;verticalAlign=middle;whiteSpace=wrap;rounded=0;" vertex="1" parent="1">
          <mxGeometry x="2028" y="-460" width="60" height="30" as="geometry" />
        </mxCell>
        <mxCell id="Ry-wdNPNn0yCc1i3UbVn-91" value="JSON" style="text;html=1;strokeColor=none;fillColor=none;align=center;verticalAlign=middle;whiteSpace=wrap;rounded=0;" vertex="1" parent="1">
          <mxGeometry x="1945" y="-490" width="60" height="30" as="geometry" />
        </mxCell>
        <mxCell id="Ry-wdNPNn0yCc1i3UbVn-95" value="синхронизация" style="text;html=1;strokeColor=none;fillColor=none;align=center;verticalAlign=middle;whiteSpace=wrap;rounded=0;" vertex="1" parent="1">
          <mxGeometry x="1975" y="-610" width="100" height="30" as="geometry" />
        </mxCell>
        <mxCell id="Ry-wdNPNn0yCc1i3UbVn-97" value="IOT" style="text;html=1;strokeColor=none;fillColor=none;align=center;verticalAlign=middle;whiteSpace=wrap;rounded=0;" vertex="1" parent="1">
          <mxGeometry x="1913" y="-440" width="60" height="30" as="geometry" />
        </mxCell>
        <mxCell id="Ry-wdNPNn0yCc1i3UbVn-98" value="Actor" style="shape=umlActor;verticalLabelPosition=bottom;verticalAlign=top;html=1;outlineConnect=0;" vertex="1" parent="1">
          <mxGeometry x="2058" y="-160" width="30" height="60" as="geometry" />
        </mxCell>
        <mxCell id="Ry-wdNPNn0yCc1i3UbVn-103" style="edgeStyle=orthogonalEdgeStyle;rounded=0;orthogonalLoop=1;jettySize=auto;html=1;" edge="1" parent="1" source="Ry-wdNPNn0yCc1i3UbVn-102" target="Ry-wdNPNn0yCc1i3UbVn-88">
          <mxGeometry relative="1" as="geometry" />
        </mxCell>
        <mxCell id="Ry-wdNPNn0yCc1i3UbVn-111" style="edgeStyle=orthogonalEdgeStyle;rounded=0;orthogonalLoop=1;jettySize=auto;html=1;entryX=0;entryY=0.5;entryDx=0;entryDy=0;" edge="1" parent="1" source="Ry-wdNPNn0yCc1i3UbVn-102" target="Ry-wdNPNn0yCc1i3UbVn-108">
          <mxGeometry relative="1" as="geometry" />
        </mxCell>
        <mxCell id="Ry-wdNPNn0yCc1i3UbVn-135" style="edgeStyle=orthogonalEdgeStyle;rounded=0;orthogonalLoop=1;jettySize=auto;html=1;" edge="1" parent="1" source="Ry-wdNPNn0yCc1i3UbVn-102" target="Ry-wdNPNn0yCc1i3UbVn-133">
          <mxGeometry relative="1" as="geometry" />
        </mxCell>
        <mxCell id="Ry-wdNPNn0yCc1i3UbVn-102" value="BD" style="shape=cylinder3;whiteSpace=wrap;html=1;boundedLbl=1;backgroundOutline=1;size=15;" vertex="1" parent="1">
          <mxGeometry x="2230" y="-502.5" width="60" height="80" as="geometry" />
        </mxCell>
        <mxCell id="Ry-wdNPNn0yCc1i3UbVn-104" value="events {&quot;date_time&quot;: 143142, &quot;iin&quot;: 14134, &quot;is_have_mask&quot;: &#39;true&#39;}" style="text;html=1;strokeColor=none;fillColor=none;align=center;verticalAlign=middle;whiteSpace=wrap;rounded=0;" vertex="1" parent="1">
          <mxGeometry x="2430" y="-587.5" width="390" height="30" as="geometry" />
        </mxCell>
        <mxCell id="Ry-wdNPNn0yCc1i3UbVn-108" value="events {&quot;date_time&quot;: 143142, &quot;iin&quot;: 14134, &quot;is_have_mask&quot;: &#39;true&#39;}" style="text;html=1;strokeColor=none;fillColor=none;align=center;verticalAlign=middle;whiteSpace=wrap;rounded=0;" vertex="1" parent="1">
          <mxGeometry x="2430" y="-557.5" width="390" height="30" as="geometry" />
        </mxCell>
        <mxCell id="Ry-wdNPNn0yCc1i3UbVn-109" value="events {&quot;date_time&quot;: 143142, &quot;iin&quot;: 14134, &quot;is_have_mask&quot;: &#39;true&#39;}" style="text;html=1;strokeColor=none;fillColor=none;align=center;verticalAlign=middle;whiteSpace=wrap;rounded=0;" vertex="1" parent="1">
          <mxGeometry x="2430" y="-532.5" width="390" height="30" as="geometry" />
        </mxCell>
        <mxCell id="Ry-wdNPNn0yCc1i3UbVn-110" value="events {&quot;date_time&quot;: 143142, &quot;iin&quot;: 14134, &quot;is_have_mask&quot;: &#39;true&#39;}" style="text;html=1;strokeColor=none;fillColor=none;align=center;verticalAlign=middle;whiteSpace=wrap;rounded=0;" vertex="1" parent="1">
          <mxGeometry x="2430" y="-502.5" width="390" height="30" as="geometry" />
        </mxCell>
        <mxCell id="Ry-wdNPNn0yCc1i3UbVn-112" value="ОТиЗ" style="shape=umlActor;verticalLabelPosition=bottom;verticalAlign=top;html=1;outlineConnect=0;" vertex="1" parent="1">
          <mxGeometry x="2830" y="-310" width="30" height="60" as="geometry" />
        </mxCell>
        <mxCell id="Ry-wdNPNn0yCc1i3UbVn-113" value="" style="rounded=0;whiteSpace=wrap;html=1;" vertex="1" parent="1">
          <mxGeometry x="2400" y="-260" width="400" height="160" as="geometry" />
        </mxCell>
        <mxCell id="Ry-wdNPNn0yCc1i3UbVn-114" value="" style="rounded=0;whiteSpace=wrap;html=1;" vertex="1" parent="1">
          <mxGeometry x="2400" y="-260" width="400" height="35" as="geometry" />
        </mxCell>
        <mxCell id="Ry-wdNPNn0yCc1i3UbVn-115" value="" style="rounded=0;whiteSpace=wrap;html=1;" vertex="1" parent="1">
          <mxGeometry x="2400" y="-225" width="400" height="35" as="geometry" />
        </mxCell>
        <mxCell id="Ry-wdNPNn0yCc1i3UbVn-116" value="" style="rounded=0;whiteSpace=wrap;html=1;" vertex="1" parent="1">
          <mxGeometry x="2400" y="-190" width="400" height="35" as="geometry" />
        </mxCell>
        <mxCell id="Ry-wdNPNn0yCc1i3UbVn-117" value="" style="rounded=0;whiteSpace=wrap;html=1;" vertex="1" parent="1">
          <mxGeometry x="2400" y="-155" width="400" height="35" as="geometry" />
        </mxCell>
        <mxCell id="Ry-wdNPNn0yCc1i3UbVn-118" value="" style="rounded=0;whiteSpace=wrap;html=1;" vertex="1" parent="1">
          <mxGeometry x="2400" y="-260" width="80" height="35" as="geometry" />
        </mxCell>
        <mxCell id="Ry-wdNPNn0yCc1i3UbVn-119" value="" style="rounded=0;whiteSpace=wrap;html=1;" vertex="1" parent="1">
          <mxGeometry x="2400" y="-225" width="80" height="30" as="geometry" />
        </mxCell>
        <mxCell id="Ry-wdNPNn0yCc1i3UbVn-120" value="" style="rounded=0;whiteSpace=wrap;html=1;" vertex="1" parent="1">
          <mxGeometry x="2400" y="-187.5" width="80" height="30" as="geometry" />
        </mxCell>
        <mxCell id="Ry-wdNPNn0yCc1i3UbVn-121" value="" style="rounded=0;whiteSpace=wrap;html=1;" vertex="1" parent="1">
          <mxGeometry x="2400" y="-155" width="80" height="30" as="geometry" />
        </mxCell>
        <mxCell id="Ry-wdNPNn0yCc1i3UbVn-122" value="" style="rounded=0;whiteSpace=wrap;html=1;" vertex="1" parent="1">
          <mxGeometry x="2490" y="-260" width="80" height="35" as="geometry" />
        </mxCell>
        <mxCell id="Ry-wdNPNn0yCc1i3UbVn-123" value="" style="rounded=0;whiteSpace=wrap;html=1;" vertex="1" parent="1">
          <mxGeometry x="2490" y="-225" width="80" height="30" as="geometry" />
        </mxCell>
        <mxCell id="Ry-wdNPNn0yCc1i3UbVn-124" value="" style="rounded=0;whiteSpace=wrap;html=1;" vertex="1" parent="1">
          <mxGeometry x="2490" y="-187.5" width="80" height="30" as="geometry" />
        </mxCell>
        <mxCell id="Ry-wdNPNn0yCc1i3UbVn-125" value="" style="rounded=0;whiteSpace=wrap;html=1;" vertex="1" parent="1">
          <mxGeometry x="2490" y="-155" width="80" height="30" as="geometry" />
        </mxCell>
        <mxCell id="Ry-wdNPNn0yCc1i3UbVn-126" value="" style="rounded=0;whiteSpace=wrap;html=1;" vertex="1" parent="1">
          <mxGeometry x="2580" y="-260" width="80" height="35" as="geometry" />
        </mxCell>
        <mxCell id="Ry-wdNPNn0yCc1i3UbVn-127" value="" style="rounded=0;whiteSpace=wrap;html=1;" vertex="1" parent="1">
          <mxGeometry x="2580" y="-225" width="80" height="30" as="geometry" />
        </mxCell>
        <mxCell id="Ry-wdNPNn0yCc1i3UbVn-128" value="" style="rounded=0;whiteSpace=wrap;html=1;" vertex="1" parent="1">
          <mxGeometry x="2580" y="-187.5" width="80" height="30" as="geometry" />
        </mxCell>
        <mxCell id="Ry-wdNPNn0yCc1i3UbVn-129" value="" style="rounded=0;whiteSpace=wrap;html=1;" vertex="1" parent="1">
          <mxGeometry x="2580" y="-155" width="80" height="30" as="geometry" />
        </mxCell>
        <mxCell id="Ry-wdNPNn0yCc1i3UbVn-131" style="edgeStyle=orthogonalEdgeStyle;rounded=0;orthogonalLoop=1;jettySize=auto;html=1;" edge="1" parent="1" source="Ry-wdNPNn0yCc1i3UbVn-130" target="Ry-wdNPNn0yCc1i3UbVn-102">
          <mxGeometry relative="1" as="geometry">
            <Array as="points">
              <mxPoint x="2600" y="-390" />
              <mxPoint x="2260" y="-390" />
            </Array>
          </mxGeometry>
        </mxCell>
        <mxCell id="Ry-wdNPNn0yCc1i3UbVn-130" value="excel" style="text;html=1;strokeColor=none;fillColor=none;align=center;verticalAlign=middle;whiteSpace=wrap;rounded=0;" vertex="1" parent="1">
          <mxGeometry x="2570" y="-300" width="60" height="30" as="geometry" />
        </mxCell>
        <mxCell id="Ry-wdNPNn0yCc1i3UbVn-132" value="МАКРОС" style="text;html=1;strokeColor=#9673a6;fillColor=#e1d5e7;align=center;verticalAlign=middle;whiteSpace=wrap;rounded=0;" vertex="1" parent="1">
          <mxGeometry x="2440" y="-355" width="120" height="75" as="geometry" />
        </mxCell>
        <mxCell id="Ry-wdNPNn0yCc1i3UbVn-134" style="edgeStyle=orthogonalEdgeStyle;rounded=0;orthogonalLoop=1;jettySize=auto;html=1;" edge="1" parent="1" source="Ry-wdNPNn0yCc1i3UbVn-133" target="Ry-wdNPNn0yCc1i3UbVn-130">
          <mxGeometry relative="1" as="geometry" />
        </mxCell>
        <mxCell id="Ry-wdNPNn0yCc1i3UbVn-141" style="edgeStyle=orthogonalEdgeStyle;rounded=0;orthogonalLoop=1;jettySize=auto;html=1;entryX=0;entryY=0.5;entryDx=0;entryDy=0;entryPerimeter=0;" edge="1" parent="1" source="Ry-wdNPNn0yCc1i3UbVn-133" target="Ry-wdNPNn0yCc1i3UbVn-140">
          <mxGeometry relative="1" as="geometry" />
        </mxCell>
        <mxCell id="Ry-wdNPNn0yCc1i3UbVn-133" value="Django" style="rounded=1;whiteSpace=wrap;html=1;" vertex="1" parent="1">
          <mxGeometry x="2680" y="-450" width="120" height="60" as="geometry" />
        </mxCell>
        <mxCell id="Ry-wdNPNn0yCc1i3UbVn-137" style="edgeStyle=orthogonalEdgeStyle;rounded=0;orthogonalLoop=1;jettySize=auto;html=1;entryX=0.435;entryY=0.981;entryDx=0;entryDy=0;entryPerimeter=0;" edge="1" parent="1" source="Ry-wdNPNn0yCc1i3UbVn-136" target="Ry-wdNPNn0yCc1i3UbVn-133">
          <mxGeometry relative="1" as="geometry" />
        </mxCell>
        <mxCell id="Ry-wdNPNn0yCc1i3UbVn-136" value="React" style="shape=parallelogram;perimeter=parallelogramPerimeter;whiteSpace=wrap;html=1;fixedSize=1;" vertex="1" parent="1">
          <mxGeometry x="2650" y="-337.5" width="160" height="80" as="geometry" />
        </mxCell>
        <mxCell id="Ry-wdNPNn0yCc1i3UbVn-138" value="web" style="text;html=1;strokeColor=none;fillColor=none;align=center;verticalAlign=middle;whiteSpace=wrap;rounded=0;" vertex="1" parent="1">
          <mxGeometry x="2750" y="-375" width="60" height="30" as="geometry" />
        </mxCell>
        <mxCell id="Ry-wdNPNn0yCc1i3UbVn-140" value="BD" style="shape=cylinder3;whiteSpace=wrap;html=1;boundedLbl=1;backgroundOutline=1;size=15;" vertex="1" parent="1">
          <mxGeometry x="2920" y="-515" width="80" height="105" as="geometry" />
        </mxCell>
      </root>
    </mxGraphModel>
  </diagram>
</mxfile>
